<svg xmlns="http://www.w3.org/2000/svg" viewBox="0 0 512 512">
  <rect width="512" height="512" fill="#b45309"/>
  <circle cx="256" cy="280" r="160" fill="#fbbf24" opacity="0.08"/>
  <!-- Steam: 3 rising wisps -->
  <g stroke="#fef3c7" stroke-width="11" stroke-linecap="round" fill="none" opacity="0.85">
    <path d="M212 130 q 12 22 0 44 q -12 22 0 44"/>
    <path d="M256 110 q 12 22 0 44 q -12 22 0 44 q 12 22 0 44"/>
    <path d="M300 130 q 12 22 0 44 q -12 22 0 44"/>
  </g>
  <!-- Mug handle (drawn behind body) -->
  <path d="M362 300 q 56 0 56 50 q 0 50 -56 50" stroke="#fef3c7" stroke-width="22" stroke-linejoin="round" fill="none"/>
  <!-- Mug body with rounded bottom -->
  <path d="M146 282 L 146 340 a 60 60 0 0 0 60 60 L 306 400 a 60 60 0 0 0 60 -60 L 366 282 Z" fill="#fef3c7"/>
  <!-- Top rim -->
  <ellipse cx="256" cy="282" rx="110" ry="16" fill="#fef3c7"/>
  <!-- Coffee surface -->
  <ellipse cx="256" cy="282" rx="92" ry="11" fill="#78350f"/>
</svg>